<mxfile host="app.diagrams.net" modified="2023-08-24T10:02:11.069Z" agent="Mozilla/5.0 (Windows NT 10.0; Win64; x64) AppleWebKit/537.36 (KHTML, like Gecko) Chrome/115.0.0.0 Safari/537.36" etag="fMrQu6xzJdhfNtX7lW5j" version="21.6.8" type="device">
  <diagram id="R2lEEEUBdFMjLlhIrx00" name="Page-1">
    <mxGraphModel dx="724" dy="869" grid="1" gridSize="10" guides="1" tooltips="1" connect="1" arrows="1" fold="1" page="1" pageScale="1" pageWidth="850" pageHeight="1100" math="0" shadow="0" extFonts="Permanent Marker^https://fonts.googleapis.com/css?family=Permanent+Marker">
      <root>
        <mxCell id="0" />
        <mxCell id="1" parent="0" />
        <mxCell id="0GPYcA2V2fUwD0SfGnkc-2" value="&lt;font style=&quot;font-size: 19px;&quot;&gt;Major&lt;/font&gt;" style="shape=table;startSize=30;container=1;collapsible=1;childLayout=tableLayout;fixedRows=1;rowLines=0;fontStyle=1;align=center;resizeLast=1;html=1;fontSize=14;strokeWidth=2;" parent="1" vertex="1">
          <mxGeometry x="1170" y="635" width="180" height="90" as="geometry" />
        </mxCell>
        <mxCell id="0GPYcA2V2fUwD0SfGnkc-3" value="" style="shape=tableRow;horizontal=0;startSize=0;swimlaneHead=0;swimlaneBody=0;collapsible=0;dropTarget=0;points=[[0,0.5],[1,0.5]];portConstraint=eastwest;top=0;left=0;right=0;bottom=1;fontSize=14;strokeWidth=2;" parent="0GPYcA2V2fUwD0SfGnkc-2" vertex="1">
          <mxGeometry y="30" width="180" height="30" as="geometry" />
        </mxCell>
        <mxCell id="0GPYcA2V2fUwD0SfGnkc-4" value="PK" style="shape=partialRectangle;connectable=0;top=0;left=0;bottom=0;right=0;fontStyle=1;overflow=hidden;whiteSpace=wrap;html=1;fontSize=14;strokeWidth=2;" parent="0GPYcA2V2fUwD0SfGnkc-3" vertex="1">
          <mxGeometry width="30" height="30" as="geometry">
            <mxRectangle width="30" height="30" as="alternateBounds" />
          </mxGeometry>
        </mxCell>
        <mxCell id="0GPYcA2V2fUwD0SfGnkc-5" value="major_id" style="shape=partialRectangle;connectable=0;top=0;left=0;bottom=0;right=0;align=left;spacingLeft=6;fontStyle=5;overflow=hidden;whiteSpace=wrap;html=1;fontSize=14;strokeWidth=2;" parent="0GPYcA2V2fUwD0SfGnkc-3" vertex="1">
          <mxGeometry x="30" width="150" height="30" as="geometry">
            <mxRectangle width="150" height="30" as="alternateBounds" />
          </mxGeometry>
        </mxCell>
        <mxCell id="0GPYcA2V2fUwD0SfGnkc-6" value="" style="shape=tableRow;horizontal=0;startSize=0;swimlaneHead=0;swimlaneBody=0;collapsible=0;dropTarget=0;points=[[0,0.5],[1,0.5]];portConstraint=eastwest;top=0;left=0;right=0;bottom=0;fontSize=14;strokeWidth=2;" parent="0GPYcA2V2fUwD0SfGnkc-2" vertex="1">
          <mxGeometry y="60" width="180" height="30" as="geometry" />
        </mxCell>
        <mxCell id="0GPYcA2V2fUwD0SfGnkc-7" value="" style="shape=partialRectangle;connectable=0;top=0;left=0;bottom=0;right=0;editable=1;overflow=hidden;whiteSpace=wrap;html=1;fontSize=14;strokeWidth=2;" parent="0GPYcA2V2fUwD0SfGnkc-6" vertex="1">
          <mxGeometry width="30" height="30" as="geometry">
            <mxRectangle width="30" height="30" as="alternateBounds" />
          </mxGeometry>
        </mxCell>
        <mxCell id="0GPYcA2V2fUwD0SfGnkc-8" value="major_name" style="shape=partialRectangle;connectable=0;top=0;left=0;bottom=0;right=0;align=left;spacingLeft=6;overflow=hidden;whiteSpace=wrap;html=1;fontSize=14;strokeWidth=2;" parent="0GPYcA2V2fUwD0SfGnkc-6" vertex="1">
          <mxGeometry x="30" width="150" height="30" as="geometry">
            <mxRectangle width="150" height="30" as="alternateBounds" />
          </mxGeometry>
        </mxCell>
        <mxCell id="0GPYcA2V2fUwD0SfGnkc-12" value="&lt;font style=&quot;font-size: 19px;&quot;&gt;Student&lt;/font&gt;" style="shape=table;startSize=30;container=1;collapsible=1;childLayout=tableLayout;fixedRows=1;rowLines=0;fontStyle=1;align=center;resizeLast=1;html=1;fontSize=14;strokeWidth=2;" parent="1" vertex="1">
          <mxGeometry x="1160" y="345" width="180" height="120" as="geometry" />
        </mxCell>
        <mxCell id="0GPYcA2V2fUwD0SfGnkc-13" value="" style="shape=tableRow;horizontal=0;startSize=0;swimlaneHead=0;swimlaneBody=0;collapsible=0;dropTarget=0;points=[[0,0.5],[1,0.5]];portConstraint=eastwest;top=0;left=0;right=0;bottom=1;fontSize=14;strokeWidth=2;" parent="0GPYcA2V2fUwD0SfGnkc-12" vertex="1">
          <mxGeometry y="30" width="180" height="30" as="geometry" />
        </mxCell>
        <mxCell id="0GPYcA2V2fUwD0SfGnkc-14" value="PK" style="shape=partialRectangle;connectable=0;top=0;left=0;bottom=0;right=0;fontStyle=1;overflow=hidden;whiteSpace=wrap;html=1;fontSize=14;strokeWidth=2;" parent="0GPYcA2V2fUwD0SfGnkc-13" vertex="1">
          <mxGeometry width="30" height="30" as="geometry">
            <mxRectangle width="30" height="30" as="alternateBounds" />
          </mxGeometry>
        </mxCell>
        <mxCell id="0GPYcA2V2fUwD0SfGnkc-15" value="std_code" style="shape=partialRectangle;connectable=0;top=0;left=0;bottom=0;right=0;align=left;spacingLeft=6;fontStyle=5;overflow=hidden;whiteSpace=wrap;html=1;fontSize=14;strokeWidth=2;" parent="0GPYcA2V2fUwD0SfGnkc-13" vertex="1">
          <mxGeometry x="30" width="150" height="30" as="geometry">
            <mxRectangle width="150" height="30" as="alternateBounds" />
          </mxGeometry>
        </mxCell>
        <mxCell id="0GPYcA2V2fUwD0SfGnkc-16" value="" style="shape=tableRow;horizontal=0;startSize=0;swimlaneHead=0;swimlaneBody=0;collapsible=0;dropTarget=0;points=[[0,0.5],[1,0.5]];portConstraint=eastwest;top=0;left=0;right=0;bottom=0;fontSize=14;strokeWidth=2;" parent="0GPYcA2V2fUwD0SfGnkc-12" vertex="1">
          <mxGeometry y="60" width="180" height="30" as="geometry" />
        </mxCell>
        <mxCell id="0GPYcA2V2fUwD0SfGnkc-17" value="FK" style="shape=partialRectangle;connectable=0;top=0;left=0;bottom=0;right=0;editable=1;overflow=hidden;whiteSpace=wrap;html=1;fontSize=14;strokeWidth=2;" parent="0GPYcA2V2fUwD0SfGnkc-16" vertex="1">
          <mxGeometry width="30" height="30" as="geometry">
            <mxRectangle width="30" height="30" as="alternateBounds" />
          </mxGeometry>
        </mxCell>
        <mxCell id="0GPYcA2V2fUwD0SfGnkc-18" value="major_id" style="shape=partialRectangle;connectable=0;top=0;left=0;bottom=0;right=0;align=left;spacingLeft=6;overflow=hidden;whiteSpace=wrap;html=1;fontSize=14;strokeWidth=2;" parent="0GPYcA2V2fUwD0SfGnkc-16" vertex="1">
          <mxGeometry x="30" width="150" height="30" as="geometry">
            <mxRectangle width="150" height="30" as="alternateBounds" />
          </mxGeometry>
        </mxCell>
        <mxCell id="0GPYcA2V2fUwD0SfGnkc-19" value="" style="shape=tableRow;horizontal=0;startSize=0;swimlaneHead=0;swimlaneBody=0;collapsible=0;dropTarget=0;points=[[0,0.5],[1,0.5]];portConstraint=eastwest;top=0;left=0;right=0;bottom=0;fontSize=14;strokeWidth=2;" parent="0GPYcA2V2fUwD0SfGnkc-12" vertex="1">
          <mxGeometry y="90" width="180" height="30" as="geometry" />
        </mxCell>
        <mxCell id="0GPYcA2V2fUwD0SfGnkc-20" value="" style="shape=partialRectangle;connectable=0;top=0;left=0;bottom=0;right=0;editable=1;overflow=hidden;whiteSpace=wrap;html=1;fontSize=14;strokeWidth=2;" parent="0GPYcA2V2fUwD0SfGnkc-19" vertex="1">
          <mxGeometry width="30" height="30" as="geometry">
            <mxRectangle width="30" height="30" as="alternateBounds" />
          </mxGeometry>
        </mxCell>
        <mxCell id="0GPYcA2V2fUwD0SfGnkc-21" value="std_name" style="shape=partialRectangle;connectable=0;top=0;left=0;bottom=0;right=0;align=left;spacingLeft=6;overflow=hidden;whiteSpace=wrap;html=1;fontSize=14;strokeWidth=2;" parent="0GPYcA2V2fUwD0SfGnkc-19" vertex="1">
          <mxGeometry x="30" width="150" height="30" as="geometry">
            <mxRectangle width="150" height="30" as="alternateBounds" />
          </mxGeometry>
        </mxCell>
        <mxCell id="0GPYcA2V2fUwD0SfGnkc-42" value="" style="fontSize=14;html=1;endArrow=ERoneToMany;startArrow=ERmandOne;rounded=0;exitX=0;exitY=0.5;exitDx=0;exitDy=0;entryX=0;entryY=0.5;entryDx=0;entryDy=0;strokeWidth=2;" parent="1" source="0GPYcA2V2fUwD0SfGnkc-3" target="0GPYcA2V2fUwD0SfGnkc-16" edge="1">
          <mxGeometry width="100" height="100" relative="1" as="geometry">
            <mxPoint x="713" y="154" as="sourcePoint" />
            <mxPoint x="790" y="50" as="targetPoint" />
            <Array as="points">
              <mxPoint x="1120" y="680" />
              <mxPoint x="1120" y="420" />
            </Array>
          </mxGeometry>
        </mxCell>
        <mxCell id="0GPYcA2V2fUwD0SfGnkc-46" value="" style="edgeStyle=entityRelationEdgeStyle;fontSize=14;html=1;endArrow=ERoneToMany;startArrow=ERmandOne;rounded=0;exitX=1;exitY=0.5;exitDx=0;exitDy=0;entryX=-0.026;entryY=0.495;entryDx=0;entryDy=0;entryPerimeter=0;strokeWidth=2;" parent="1" source="0GPYcA2V2fUwD0SfGnkc-13" target="0GPYcA2V2fUwD0SfGnkc-73" edge="1">
          <mxGeometry width="100" height="100" relative="1" as="geometry">
            <mxPoint x="970" y="435" as="sourcePoint" />
            <mxPoint x="1040" y="430" as="targetPoint" />
          </mxGeometry>
        </mxCell>
        <mxCell id="0GPYcA2V2fUwD0SfGnkc-69" value="&lt;font style=&quot;font-size: 17px;&quot;&gt;STD_REG_COURSE&lt;/font&gt;" style="shape=table;startSize=30;container=1;collapsible=1;childLayout=tableLayout;fixedRows=1;rowLines=0;fontStyle=1;align=center;resizeLast=1;html=1;fontSize=14;strokeWidth=2;" parent="1" vertex="1">
          <mxGeometry x="1410" y="345" width="220" height="90" as="geometry" />
        </mxCell>
        <mxCell id="0GPYcA2V2fUwD0SfGnkc-73" value="" style="shape=tableRow;horizontal=0;startSize=0;swimlaneHead=0;swimlaneBody=0;collapsible=0;dropTarget=0;points=[[0,0.5],[1,0.5]];portConstraint=eastwest;top=0;left=0;right=0;bottom=0;fontSize=14;strokeWidth=2;" parent="0GPYcA2V2fUwD0SfGnkc-69" vertex="1">
          <mxGeometry y="30" width="220" height="30" as="geometry" />
        </mxCell>
        <mxCell id="0GPYcA2V2fUwD0SfGnkc-74" value="PK" style="shape=partialRectangle;connectable=0;top=0;left=0;bottom=0;right=0;editable=1;overflow=hidden;whiteSpace=wrap;html=1;fontSize=14;strokeWidth=2;" parent="0GPYcA2V2fUwD0SfGnkc-73" vertex="1">
          <mxGeometry width="30" height="30" as="geometry">
            <mxRectangle width="30" height="30" as="alternateBounds" />
          </mxGeometry>
        </mxCell>
        <mxCell id="0GPYcA2V2fUwD0SfGnkc-75" value="&lt;u style=&quot;font-size: 14px;&quot;&gt;std_code&lt;/u&gt;" style="shape=partialRectangle;connectable=0;top=0;left=0;bottom=0;right=0;align=left;spacingLeft=6;overflow=hidden;whiteSpace=wrap;html=1;fontSize=14;strokeWidth=2;" parent="0GPYcA2V2fUwD0SfGnkc-73" vertex="1">
          <mxGeometry x="30" width="190" height="30" as="geometry">
            <mxRectangle width="190" height="30" as="alternateBounds" />
          </mxGeometry>
        </mxCell>
        <mxCell id="0GPYcA2V2fUwD0SfGnkc-76" value="" style="shape=tableRow;horizontal=0;startSize=0;swimlaneHead=0;swimlaneBody=0;collapsible=0;dropTarget=0;points=[[0,0.5],[1,0.5]];portConstraint=eastwest;top=0;left=0;right=0;bottom=0;fontSize=14;strokeWidth=2;" parent="0GPYcA2V2fUwD0SfGnkc-69" vertex="1">
          <mxGeometry y="60" width="220" height="30" as="geometry" />
        </mxCell>
        <mxCell id="0GPYcA2V2fUwD0SfGnkc-77" value="PK" style="shape=partialRectangle;connectable=0;top=0;left=0;bottom=0;right=0;editable=1;overflow=hidden;whiteSpace=wrap;html=1;fontSize=14;strokeWidth=2;" parent="0GPYcA2V2fUwD0SfGnkc-76" vertex="1">
          <mxGeometry width="30" height="30" as="geometry">
            <mxRectangle width="30" height="30" as="alternateBounds" />
          </mxGeometry>
        </mxCell>
        <mxCell id="0GPYcA2V2fUwD0SfGnkc-78" value="&lt;u style=&quot;font-size: 14px;&quot;&gt;course_id&lt;/u&gt;" style="shape=partialRectangle;connectable=0;top=0;left=0;bottom=0;right=0;align=left;spacingLeft=6;overflow=hidden;whiteSpace=wrap;html=1;fontSize=14;strokeWidth=2;" parent="0GPYcA2V2fUwD0SfGnkc-76" vertex="1">
          <mxGeometry x="30" width="190" height="30" as="geometry">
            <mxRectangle width="190" height="30" as="alternateBounds" />
          </mxGeometry>
        </mxCell>
        <mxCell id="0GPYcA2V2fUwD0SfGnkc-83" value="&lt;font style=&quot;font-size: 19px;&quot;&gt;Course&lt;/font&gt;" style="shape=table;startSize=30;container=1;collapsible=1;childLayout=tableLayout;fixedRows=1;rowLines=0;fontStyle=1;align=center;resizeLast=1;html=1;fontSize=14;strokeWidth=2;" parent="1" vertex="1">
          <mxGeometry x="1750" y="345" width="180" height="250" as="geometry" />
        </mxCell>
        <mxCell id="0GPYcA2V2fUwD0SfGnkc-84" value="" style="shape=tableRow;horizontal=0;startSize=0;swimlaneHead=0;swimlaneBody=0;collapsible=0;dropTarget=0;points=[[0,0.5],[1,0.5]];portConstraint=eastwest;top=0;left=0;right=0;bottom=1;fontSize=14;strokeWidth=2;" parent="0GPYcA2V2fUwD0SfGnkc-83" vertex="1">
          <mxGeometry y="30" width="180" height="40" as="geometry" />
        </mxCell>
        <mxCell id="0GPYcA2V2fUwD0SfGnkc-85" value="PK" style="shape=partialRectangle;connectable=0;top=0;left=0;bottom=0;right=0;fontStyle=1;overflow=hidden;whiteSpace=wrap;html=1;fontSize=14;strokeWidth=2;" parent="0GPYcA2V2fUwD0SfGnkc-84" vertex="1">
          <mxGeometry width="30" height="40" as="geometry">
            <mxRectangle width="30" height="40" as="alternateBounds" />
          </mxGeometry>
        </mxCell>
        <mxCell id="0GPYcA2V2fUwD0SfGnkc-86" value="course_id" style="shape=partialRectangle;connectable=0;top=0;left=0;bottom=0;right=0;align=left;spacingLeft=6;fontStyle=5;overflow=hidden;whiteSpace=wrap;html=1;fontSize=14;strokeWidth=2;" parent="0GPYcA2V2fUwD0SfGnkc-84" vertex="1">
          <mxGeometry x="30" width="150" height="40" as="geometry">
            <mxRectangle width="150" height="40" as="alternateBounds" />
          </mxGeometry>
        </mxCell>
        <mxCell id="0GPYcA2V2fUwD0SfGnkc-87" value="" style="shape=tableRow;horizontal=0;startSize=0;swimlaneHead=0;swimlaneBody=0;collapsible=0;dropTarget=0;points=[[0,0.5],[1,0.5]];portConstraint=eastwest;top=0;left=0;right=0;bottom=0;fontSize=14;strokeWidth=2;" parent="0GPYcA2V2fUwD0SfGnkc-83" vertex="1">
          <mxGeometry y="70" width="180" height="30" as="geometry" />
        </mxCell>
        <mxCell id="0GPYcA2V2fUwD0SfGnkc-88" value="FK" style="shape=partialRectangle;connectable=0;top=0;left=0;bottom=0;right=0;editable=1;overflow=hidden;whiteSpace=wrap;html=1;fontSize=14;strokeWidth=2;" parent="0GPYcA2V2fUwD0SfGnkc-87" vertex="1">
          <mxGeometry width="30" height="30" as="geometry">
            <mxRectangle width="30" height="30" as="alternateBounds" />
          </mxGeometry>
        </mxCell>
        <mxCell id="0GPYcA2V2fUwD0SfGnkc-89" value="subj_code" style="shape=partialRectangle;connectable=0;top=0;left=0;bottom=0;right=0;align=left;spacingLeft=6;overflow=hidden;whiteSpace=wrap;html=1;fontSize=14;strokeWidth=2;" parent="0GPYcA2V2fUwD0SfGnkc-87" vertex="1">
          <mxGeometry x="30" width="150" height="30" as="geometry">
            <mxRectangle width="150" height="30" as="alternateBounds" />
          </mxGeometry>
        </mxCell>
        <mxCell id="0GPYcA2V2fUwD0SfGnkc-90" value="" style="shape=tableRow;horizontal=0;startSize=0;swimlaneHead=0;swimlaneBody=0;collapsible=0;dropTarget=0;points=[[0,0.5],[1,0.5]];portConstraint=eastwest;top=0;left=0;right=0;bottom=0;fontSize=14;strokeWidth=2;" parent="0GPYcA2V2fUwD0SfGnkc-83" vertex="1">
          <mxGeometry y="100" width="180" height="30" as="geometry" />
        </mxCell>
        <mxCell id="0GPYcA2V2fUwD0SfGnkc-91" value="FK" style="shape=partialRectangle;connectable=0;top=0;left=0;bottom=0;right=0;editable=1;overflow=hidden;whiteSpace=wrap;html=1;fontSize=14;strokeWidth=2;" parent="0GPYcA2V2fUwD0SfGnkc-90" vertex="1">
          <mxGeometry width="30" height="30" as="geometry">
            <mxRectangle width="30" height="30" as="alternateBounds" />
          </mxGeometry>
        </mxCell>
        <mxCell id="0GPYcA2V2fUwD0SfGnkc-92" value="room_id" style="shape=partialRectangle;connectable=0;top=0;left=0;bottom=0;right=0;align=left;spacingLeft=6;overflow=hidden;whiteSpace=wrap;html=1;fontSize=14;strokeWidth=2;" parent="0GPYcA2V2fUwD0SfGnkc-90" vertex="1">
          <mxGeometry x="30" width="150" height="30" as="geometry">
            <mxRectangle width="150" height="30" as="alternateBounds" />
          </mxGeometry>
        </mxCell>
        <mxCell id="0GPYcA2V2fUwD0SfGnkc-93" value="" style="shape=tableRow;horizontal=0;startSize=0;swimlaneHead=0;swimlaneBody=0;collapsible=0;dropTarget=0;points=[[0,0.5],[1,0.5]];portConstraint=eastwest;top=0;left=0;right=0;bottom=0;fontSize=14;strokeWidth=2;" parent="0GPYcA2V2fUwD0SfGnkc-83" vertex="1">
          <mxGeometry y="130" width="180" height="30" as="geometry" />
        </mxCell>
        <mxCell id="0GPYcA2V2fUwD0SfGnkc-94" value="" style="shape=partialRectangle;connectable=0;top=0;left=0;bottom=0;right=0;editable=1;overflow=hidden;whiteSpace=wrap;html=1;fontSize=14;strokeWidth=2;" parent="0GPYcA2V2fUwD0SfGnkc-93" vertex="1">
          <mxGeometry width="30" height="30" as="geometry">
            <mxRectangle width="30" height="30" as="alternateBounds" />
          </mxGeometry>
        </mxCell>
        <mxCell id="0GPYcA2V2fUwD0SfGnkc-95" value="Years" style="shape=partialRectangle;connectable=0;top=0;left=0;bottom=0;right=0;align=left;spacingLeft=6;overflow=hidden;whiteSpace=wrap;html=1;fontSize=14;strokeWidth=2;" parent="0GPYcA2V2fUwD0SfGnkc-93" vertex="1">
          <mxGeometry x="30" width="150" height="30" as="geometry">
            <mxRectangle width="150" height="30" as="alternateBounds" />
          </mxGeometry>
        </mxCell>
        <mxCell id="0GPYcA2V2fUwD0SfGnkc-96" value="" style="shape=tableRow;horizontal=0;startSize=0;swimlaneHead=0;swimlaneBody=0;collapsible=0;dropTarget=0;points=[[0,0.5],[1,0.5]];portConstraint=eastwest;top=0;left=0;right=0;bottom=0;fontSize=14;strokeWidth=2;" parent="0GPYcA2V2fUwD0SfGnkc-83" vertex="1">
          <mxGeometry y="160" width="180" height="30" as="geometry" />
        </mxCell>
        <mxCell id="0GPYcA2V2fUwD0SfGnkc-97" value="" style="shape=partialRectangle;connectable=0;top=0;left=0;bottom=0;right=0;editable=1;overflow=hidden;whiteSpace=wrap;html=1;fontSize=14;strokeWidth=2;" parent="0GPYcA2V2fUwD0SfGnkc-96" vertex="1">
          <mxGeometry width="30" height="30" as="geometry">
            <mxRectangle width="30" height="30" as="alternateBounds" />
          </mxGeometry>
        </mxCell>
        <mxCell id="0GPYcA2V2fUwD0SfGnkc-98" value="Term" style="shape=partialRectangle;connectable=0;top=0;left=0;bottom=0;right=0;align=left;spacingLeft=6;overflow=hidden;whiteSpace=wrap;html=1;fontSize=14;strokeWidth=2;" parent="0GPYcA2V2fUwD0SfGnkc-96" vertex="1">
          <mxGeometry x="30" width="150" height="30" as="geometry">
            <mxRectangle width="150" height="30" as="alternateBounds" />
          </mxGeometry>
        </mxCell>
        <mxCell id="0GPYcA2V2fUwD0SfGnkc-99" value="" style="shape=tableRow;horizontal=0;startSize=0;swimlaneHead=0;swimlaneBody=0;collapsible=0;dropTarget=0;points=[[0,0.5],[1,0.5]];portConstraint=eastwest;top=0;left=0;right=0;bottom=0;fontSize=14;strokeWidth=2;" parent="0GPYcA2V2fUwD0SfGnkc-83" vertex="1">
          <mxGeometry y="190" width="180" height="30" as="geometry" />
        </mxCell>
        <mxCell id="0GPYcA2V2fUwD0SfGnkc-100" value="" style="shape=partialRectangle;connectable=0;top=0;left=0;bottom=0;right=0;editable=1;overflow=hidden;whiteSpace=wrap;html=1;fontSize=14;strokeWidth=2;" parent="0GPYcA2V2fUwD0SfGnkc-99" vertex="1">
          <mxGeometry width="30" height="30" as="geometry">
            <mxRectangle width="30" height="30" as="alternateBounds" />
          </mxGeometry>
        </mxCell>
        <mxCell id="0GPYcA2V2fUwD0SfGnkc-101" value="day" style="shape=partialRectangle;connectable=0;top=0;left=0;bottom=0;right=0;align=left;spacingLeft=6;overflow=hidden;whiteSpace=wrap;html=1;fontSize=14;strokeWidth=2;" parent="0GPYcA2V2fUwD0SfGnkc-99" vertex="1">
          <mxGeometry x="30" width="150" height="30" as="geometry">
            <mxRectangle width="150" height="30" as="alternateBounds" />
          </mxGeometry>
        </mxCell>
        <mxCell id="0GPYcA2V2fUwD0SfGnkc-158" value="" style="shape=tableRow;horizontal=0;startSize=0;swimlaneHead=0;swimlaneBody=0;collapsible=0;dropTarget=0;points=[[0,0.5],[1,0.5]];portConstraint=eastwest;top=0;left=0;right=0;bottom=0;fontSize=14;strokeWidth=2;" parent="0GPYcA2V2fUwD0SfGnkc-83" vertex="1">
          <mxGeometry y="220" width="180" height="30" as="geometry" />
        </mxCell>
        <mxCell id="0GPYcA2V2fUwD0SfGnkc-159" value="" style="shape=partialRectangle;connectable=0;top=0;left=0;bottom=0;right=0;editable=1;overflow=hidden;whiteSpace=wrap;html=1;fontSize=14;strokeWidth=2;" parent="0GPYcA2V2fUwD0SfGnkc-158" vertex="1">
          <mxGeometry width="30" height="30" as="geometry">
            <mxRectangle width="30" height="30" as="alternateBounds" />
          </mxGeometry>
        </mxCell>
        <mxCell id="0GPYcA2V2fUwD0SfGnkc-160" value="time" style="shape=partialRectangle;connectable=0;top=0;left=0;bottom=0;right=0;align=left;spacingLeft=6;overflow=hidden;whiteSpace=wrap;html=1;fontSize=14;strokeWidth=2;" parent="0GPYcA2V2fUwD0SfGnkc-158" vertex="1">
          <mxGeometry x="30" width="150" height="30" as="geometry">
            <mxRectangle width="150" height="30" as="alternateBounds" />
          </mxGeometry>
        </mxCell>
        <mxCell id="0GPYcA2V2fUwD0SfGnkc-108" value="" style="edgeStyle=entityRelationEdgeStyle;fontSize=14;html=1;endArrow=ERoneToMany;startArrow=ERmandOne;rounded=0;entryX=1;entryY=0.5;entryDx=0;entryDy=0;exitX=0;exitY=0.5;exitDx=0;exitDy=0;strokeWidth=2;" parent="1" source="0GPYcA2V2fUwD0SfGnkc-84" target="0GPYcA2V2fUwD0SfGnkc-76" edge="1">
          <mxGeometry width="100" height="100" relative="1" as="geometry">
            <mxPoint x="1530" y="545" as="sourcePoint" />
            <mxPoint x="1510" y="505" as="targetPoint" />
          </mxGeometry>
        </mxCell>
        <mxCell id="0GPYcA2V2fUwD0SfGnkc-109" value="&lt;font style=&quot;font-size: 19px;&quot;&gt;Subject&lt;/font&gt;" style="shape=table;startSize=30;container=1;collapsible=1;childLayout=tableLayout;fixedRows=1;rowLines=0;fontStyle=1;align=center;resizeLast=1;html=1;fontSize=14;strokeWidth=2;" parent="1" vertex="1">
          <mxGeometry x="1420" y="485" width="180" height="90" as="geometry" />
        </mxCell>
        <mxCell id="0GPYcA2V2fUwD0SfGnkc-110" value="" style="shape=tableRow;horizontal=0;startSize=0;swimlaneHead=0;swimlaneBody=0;collapsible=0;dropTarget=0;points=[[0,0.5],[1,0.5]];portConstraint=eastwest;top=0;left=0;right=0;bottom=1;fontSize=14;strokeWidth=2;" parent="0GPYcA2V2fUwD0SfGnkc-109" vertex="1">
          <mxGeometry y="30" width="180" height="30" as="geometry" />
        </mxCell>
        <mxCell id="0GPYcA2V2fUwD0SfGnkc-111" value="PK" style="shape=partialRectangle;connectable=0;top=0;left=0;bottom=0;right=0;fontStyle=1;overflow=hidden;whiteSpace=wrap;html=1;fontSize=14;strokeWidth=2;" parent="0GPYcA2V2fUwD0SfGnkc-110" vertex="1">
          <mxGeometry width="30" height="30" as="geometry">
            <mxRectangle width="30" height="30" as="alternateBounds" />
          </mxGeometry>
        </mxCell>
        <mxCell id="0GPYcA2V2fUwD0SfGnkc-112" value="subj_code" style="shape=partialRectangle;connectable=0;top=0;left=0;bottom=0;right=0;align=left;spacingLeft=6;fontStyle=5;overflow=hidden;whiteSpace=wrap;html=1;fontSize=14;strokeWidth=2;" parent="0GPYcA2V2fUwD0SfGnkc-110" vertex="1">
          <mxGeometry x="30" width="150" height="30" as="geometry">
            <mxRectangle width="150" height="30" as="alternateBounds" />
          </mxGeometry>
        </mxCell>
        <mxCell id="0GPYcA2V2fUwD0SfGnkc-113" value="" style="shape=tableRow;horizontal=0;startSize=0;swimlaneHead=0;swimlaneBody=0;collapsible=0;dropTarget=0;points=[[0,0.5],[1,0.5]];portConstraint=eastwest;top=0;left=0;right=0;bottom=0;fontSize=14;strokeWidth=2;" parent="0GPYcA2V2fUwD0SfGnkc-109" vertex="1">
          <mxGeometry y="60" width="180" height="30" as="geometry" />
        </mxCell>
        <mxCell id="0GPYcA2V2fUwD0SfGnkc-114" value="" style="shape=partialRectangle;connectable=0;top=0;left=0;bottom=0;right=0;editable=1;overflow=hidden;whiteSpace=wrap;html=1;fontSize=14;strokeWidth=2;" parent="0GPYcA2V2fUwD0SfGnkc-113" vertex="1">
          <mxGeometry width="30" height="30" as="geometry">
            <mxRectangle width="30" height="30" as="alternateBounds" />
          </mxGeometry>
        </mxCell>
        <mxCell id="0GPYcA2V2fUwD0SfGnkc-115" value="subj_name" style="shape=partialRectangle;connectable=0;top=0;left=0;bottom=0;right=0;align=left;spacingLeft=6;overflow=hidden;whiteSpace=wrap;html=1;fontSize=14;strokeWidth=2;" parent="0GPYcA2V2fUwD0SfGnkc-113" vertex="1">
          <mxGeometry x="30" width="150" height="30" as="geometry">
            <mxRectangle width="150" height="30" as="alternateBounds" />
          </mxGeometry>
        </mxCell>
        <mxCell id="0GPYcA2V2fUwD0SfGnkc-122" value="&lt;font style=&quot;font-size: 19px;&quot;&gt;Room&lt;/font&gt;" style="shape=table;startSize=30;container=1;collapsible=1;childLayout=tableLayout;fixedRows=1;rowLines=0;fontStyle=1;align=center;resizeLast=1;html=1;fontSize=14;strokeWidth=2;" parent="1" vertex="1">
          <mxGeometry x="1730" y="665" width="180" height="150" as="geometry" />
        </mxCell>
        <mxCell id="0GPYcA2V2fUwD0SfGnkc-123" value="" style="shape=tableRow;horizontal=0;startSize=0;swimlaneHead=0;swimlaneBody=0;collapsible=0;dropTarget=0;points=[[0,0.5],[1,0.5]];portConstraint=eastwest;top=0;left=0;right=0;bottom=1;fontSize=14;strokeWidth=2;" parent="0GPYcA2V2fUwD0SfGnkc-122" vertex="1">
          <mxGeometry y="30" width="180" height="30" as="geometry" />
        </mxCell>
        <mxCell id="0GPYcA2V2fUwD0SfGnkc-124" value="PK" style="shape=partialRectangle;connectable=0;top=0;left=0;bottom=0;right=0;fontStyle=1;overflow=hidden;whiteSpace=wrap;html=1;fontSize=14;strokeWidth=2;" parent="0GPYcA2V2fUwD0SfGnkc-123" vertex="1">
          <mxGeometry width="30" height="30" as="geometry">
            <mxRectangle width="30" height="30" as="alternateBounds" />
          </mxGeometry>
        </mxCell>
        <mxCell id="0GPYcA2V2fUwD0SfGnkc-125" value="room_id" style="shape=partialRectangle;connectable=0;top=0;left=0;bottom=0;right=0;align=left;spacingLeft=6;fontStyle=5;overflow=hidden;whiteSpace=wrap;html=1;fontSize=14;strokeWidth=2;" parent="0GPYcA2V2fUwD0SfGnkc-123" vertex="1">
          <mxGeometry x="30" width="150" height="30" as="geometry">
            <mxRectangle width="150" height="30" as="alternateBounds" />
          </mxGeometry>
        </mxCell>
        <mxCell id="0GPYcA2V2fUwD0SfGnkc-126" value="" style="shape=tableRow;horizontal=0;startSize=0;swimlaneHead=0;swimlaneBody=0;collapsible=0;dropTarget=0;points=[[0,0.5],[1,0.5]];portConstraint=eastwest;top=0;left=0;right=0;bottom=0;fontSize=14;strokeWidth=2;" parent="0GPYcA2V2fUwD0SfGnkc-122" vertex="1">
          <mxGeometry y="60" width="180" height="30" as="geometry" />
        </mxCell>
        <mxCell id="0GPYcA2V2fUwD0SfGnkc-127" value="FK" style="shape=partialRectangle;connectable=0;top=0;left=0;bottom=0;right=0;editable=1;overflow=hidden;whiteSpace=wrap;html=1;fontSize=14;strokeWidth=2;" parent="0GPYcA2V2fUwD0SfGnkc-126" vertex="1">
          <mxGeometry width="30" height="30" as="geometry">
            <mxRectangle width="30" height="30" as="alternateBounds" />
          </mxGeometry>
        </mxCell>
        <mxCell id="0GPYcA2V2fUwD0SfGnkc-128" value="roomtype_id" style="shape=partialRectangle;connectable=0;top=0;left=0;bottom=0;right=0;align=left;spacingLeft=6;overflow=hidden;whiteSpace=wrap;html=1;fontSize=14;strokeWidth=2;" parent="0GPYcA2V2fUwD0SfGnkc-126" vertex="1">
          <mxGeometry x="30" width="150" height="30" as="geometry">
            <mxRectangle width="150" height="30" as="alternateBounds" />
          </mxGeometry>
        </mxCell>
        <mxCell id="0GPYcA2V2fUwD0SfGnkc-129" value="" style="shape=tableRow;horizontal=0;startSize=0;swimlaneHead=0;swimlaneBody=0;collapsible=0;dropTarget=0;points=[[0,0.5],[1,0.5]];portConstraint=eastwest;top=0;left=0;right=0;bottom=0;fontSize=14;strokeWidth=2;" parent="0GPYcA2V2fUwD0SfGnkc-122" vertex="1">
          <mxGeometry y="90" width="180" height="30" as="geometry" />
        </mxCell>
        <mxCell id="0GPYcA2V2fUwD0SfGnkc-130" value="" style="shape=partialRectangle;connectable=0;top=0;left=0;bottom=0;right=0;editable=1;overflow=hidden;whiteSpace=wrap;html=1;fontSize=14;strokeWidth=2;" parent="0GPYcA2V2fUwD0SfGnkc-129" vertex="1">
          <mxGeometry width="30" height="30" as="geometry">
            <mxRectangle width="30" height="30" as="alternateBounds" />
          </mxGeometry>
        </mxCell>
        <mxCell id="0GPYcA2V2fUwD0SfGnkc-131" value="capacity" style="shape=partialRectangle;connectable=0;top=0;left=0;bottom=0;right=0;align=left;spacingLeft=6;overflow=hidden;whiteSpace=wrap;html=1;fontSize=14;strokeWidth=2;" parent="0GPYcA2V2fUwD0SfGnkc-129" vertex="1">
          <mxGeometry x="30" width="150" height="30" as="geometry">
            <mxRectangle width="150" height="30" as="alternateBounds" />
          </mxGeometry>
        </mxCell>
        <mxCell id="0GPYcA2V2fUwD0SfGnkc-132" value="" style="shape=tableRow;horizontal=0;startSize=0;swimlaneHead=0;swimlaneBody=0;collapsible=0;dropTarget=0;points=[[0,0.5],[1,0.5]];portConstraint=eastwest;top=0;left=0;right=0;bottom=0;fontSize=14;strokeWidth=2;" parent="0GPYcA2V2fUwD0SfGnkc-122" vertex="1">
          <mxGeometry y="120" width="180" height="30" as="geometry" />
        </mxCell>
        <mxCell id="0GPYcA2V2fUwD0SfGnkc-133" value="" style="shape=partialRectangle;connectable=0;top=0;left=0;bottom=0;right=0;editable=1;overflow=hidden;whiteSpace=wrap;html=1;fontSize=14;strokeWidth=2;" parent="0GPYcA2V2fUwD0SfGnkc-132" vertex="1">
          <mxGeometry width="30" height="30" as="geometry">
            <mxRectangle width="30" height="30" as="alternateBounds" />
          </mxGeometry>
        </mxCell>
        <mxCell id="0GPYcA2V2fUwD0SfGnkc-134" value="building" style="shape=partialRectangle;connectable=0;top=0;left=0;bottom=0;right=0;align=left;spacingLeft=6;overflow=hidden;whiteSpace=wrap;html=1;fontSize=14;strokeWidth=2;" parent="0GPYcA2V2fUwD0SfGnkc-132" vertex="1">
          <mxGeometry x="30" width="150" height="30" as="geometry">
            <mxRectangle width="150" height="30" as="alternateBounds" />
          </mxGeometry>
        </mxCell>
        <mxCell id="0GPYcA2V2fUwD0SfGnkc-142" value="" style="fontSize=14;html=1;endArrow=ERoneToMany;startArrow=ERmandOne;rounded=0;entryX=0;entryY=0.5;entryDx=0;entryDy=0;exitX=0;exitY=0.5;exitDx=0;exitDy=0;strokeWidth=2;" parent="1" source="9-79MuSGfvIbIaJEf-zn-5" target="0GPYcA2V2fUwD0SfGnkc-126" edge="1">
          <mxGeometry width="100" height="100" relative="1" as="geometry">
            <mxPoint x="1700" y="1000" as="sourcePoint" />
            <mxPoint x="1500" y="450" as="targetPoint" />
            <Array as="points">
              <mxPoint x="1680" y="910" />
              <mxPoint x="1680" y="740" />
            </Array>
          </mxGeometry>
        </mxCell>
        <mxCell id="0GPYcA2V2fUwD0SfGnkc-143" value="" style="edgeStyle=entityRelationEdgeStyle;fontSize=14;html=1;endArrow=ERoneToMany;startArrow=ERmandOne;rounded=0;exitX=1;exitY=0.5;exitDx=0;exitDy=0;entryX=0;entryY=0.5;entryDx=0;entryDy=0;strokeWidth=2;" parent="1" source="0GPYcA2V2fUwD0SfGnkc-110" target="0GPYcA2V2fUwD0SfGnkc-87" edge="1">
          <mxGeometry width="100" height="100" relative="1" as="geometry">
            <mxPoint x="1340" y="645" as="sourcePoint" />
            <mxPoint x="1430" y="655" as="targetPoint" />
            <Array as="points">
              <mxPoint x="1650" y="465" />
              <mxPoint x="1650" y="455" />
            </Array>
          </mxGeometry>
        </mxCell>
        <mxCell id="0GPYcA2V2fUwD0SfGnkc-145" value="&lt;font style=&quot;font-size: 19px;&quot;&gt;Teach&lt;/font&gt;" style="shape=table;startSize=30;container=1;collapsible=1;childLayout=tableLayout;fixedRows=1;rowLines=0;fontStyle=1;align=center;resizeLast=1;html=1;fontSize=14;strokeWidth=2;" parent="1" vertex="1">
          <mxGeometry x="2000" y="340" width="180" height="90" as="geometry" />
        </mxCell>
        <mxCell id="0GPYcA2V2fUwD0SfGnkc-146" value="" style="shape=tableRow;horizontal=0;startSize=0;swimlaneHead=0;swimlaneBody=0;collapsible=0;dropTarget=0;points=[[0,0.5],[1,0.5]];portConstraint=eastwest;top=0;left=0;right=0;bottom=0;fontSize=14;strokeWidth=2;" parent="0GPYcA2V2fUwD0SfGnkc-145" vertex="1">
          <mxGeometry y="30" width="180" height="30" as="geometry" />
        </mxCell>
        <mxCell id="0GPYcA2V2fUwD0SfGnkc-147" value="PK" style="shape=partialRectangle;connectable=0;top=0;left=0;bottom=0;right=0;editable=1;overflow=hidden;whiteSpace=wrap;html=1;fontSize=14;strokeWidth=2;" parent="0GPYcA2V2fUwD0SfGnkc-146" vertex="1">
          <mxGeometry width="30" height="30" as="geometry">
            <mxRectangle width="30" height="30" as="alternateBounds" />
          </mxGeometry>
        </mxCell>
        <mxCell id="0GPYcA2V2fUwD0SfGnkc-148" value="&lt;u style=&quot;font-size: 14px;&quot;&gt;lect_id&lt;/u&gt;" style="shape=partialRectangle;connectable=0;top=0;left=0;bottom=0;right=0;align=left;spacingLeft=6;overflow=hidden;whiteSpace=wrap;html=1;fontSize=14;strokeWidth=2;" parent="0GPYcA2V2fUwD0SfGnkc-146" vertex="1">
          <mxGeometry x="30" width="150" height="30" as="geometry">
            <mxRectangle width="150" height="30" as="alternateBounds" />
          </mxGeometry>
        </mxCell>
        <mxCell id="0GPYcA2V2fUwD0SfGnkc-149" value="" style="shape=tableRow;horizontal=0;startSize=0;swimlaneHead=0;swimlaneBody=0;collapsible=0;dropTarget=0;points=[[0,0.5],[1,0.5]];portConstraint=eastwest;top=0;left=0;right=0;bottom=0;fontSize=14;strokeWidth=2;" parent="0GPYcA2V2fUwD0SfGnkc-145" vertex="1">
          <mxGeometry y="60" width="180" height="30" as="geometry" />
        </mxCell>
        <mxCell id="0GPYcA2V2fUwD0SfGnkc-150" value="PK" style="shape=partialRectangle;connectable=0;top=0;left=0;bottom=0;right=0;editable=1;overflow=hidden;whiteSpace=wrap;html=1;fontSize=14;strokeWidth=2;" parent="0GPYcA2V2fUwD0SfGnkc-149" vertex="1">
          <mxGeometry width="30" height="30" as="geometry">
            <mxRectangle width="30" height="30" as="alternateBounds" />
          </mxGeometry>
        </mxCell>
        <mxCell id="0GPYcA2V2fUwD0SfGnkc-151" value="&lt;u style=&quot;font-size: 14px;&quot;&gt;course_id&lt;/u&gt;" style="shape=partialRectangle;connectable=0;top=0;left=0;bottom=0;right=0;align=left;spacingLeft=6;overflow=hidden;whiteSpace=wrap;html=1;fontSize=14;strokeWidth=2;" parent="0GPYcA2V2fUwD0SfGnkc-149" vertex="1">
          <mxGeometry x="30" width="150" height="30" as="geometry">
            <mxRectangle width="150" height="30" as="alternateBounds" />
          </mxGeometry>
        </mxCell>
        <mxCell id="0GPYcA2V2fUwD0SfGnkc-156" value="" style="edgeStyle=entityRelationEdgeStyle;fontSize=14;html=1;endArrow=ERoneToMany;startArrow=ERmandOne;rounded=0;exitX=0;exitY=0.5;exitDx=0;exitDy=0;strokeWidth=2;" parent="1" source="0GPYcA2V2fUwD0SfGnkc-216" target="0GPYcA2V2fUwD0SfGnkc-146" edge="1">
          <mxGeometry width="100" height="100" relative="1" as="geometry">
            <mxPoint x="2500" y="535" as="sourcePoint" />
            <mxPoint x="1439" y="718" as="targetPoint" />
          </mxGeometry>
        </mxCell>
        <mxCell id="0GPYcA2V2fUwD0SfGnkc-157" value="" style="edgeStyle=entityRelationEdgeStyle;fontSize=14;html=1;endArrow=ERoneToMany;startArrow=ERmandOne;rounded=0;exitX=1;exitY=0.5;exitDx=0;exitDy=0;entryX=0;entryY=0.5;entryDx=0;entryDy=0;strokeWidth=2;" parent="1" source="0GPYcA2V2fUwD0SfGnkc-84" target="0GPYcA2V2fUwD0SfGnkc-149" edge="1">
          <mxGeometry width="100" height="100" relative="1" as="geometry">
            <mxPoint x="1770" y="465" as="sourcePoint" />
            <mxPoint x="1860" y="475" as="targetPoint" />
          </mxGeometry>
        </mxCell>
        <mxCell id="0GPYcA2V2fUwD0SfGnkc-161" value="&lt;font style=&quot;font-size: 19px;&quot;&gt;Reservation&lt;/font&gt;" style="shape=table;startSize=30;container=1;collapsible=1;childLayout=tableLayout;fixedRows=1;rowLines=0;fontStyle=1;align=center;resizeLast=1;html=1;fontSize=14;strokeWidth=2;" parent="1" vertex="1">
          <mxGeometry x="2010" y="515" width="180" height="270" as="geometry" />
        </mxCell>
        <mxCell id="0GPYcA2V2fUwD0SfGnkc-162" value="" style="shape=tableRow;horizontal=0;startSize=0;swimlaneHead=0;swimlaneBody=0;collapsible=0;dropTarget=0;points=[[0,0.5],[1,0.5]];portConstraint=eastwest;top=0;left=0;right=0;bottom=1;fontSize=14;strokeWidth=2;" parent="0GPYcA2V2fUwD0SfGnkc-161" vertex="1">
          <mxGeometry y="30" width="180" height="30" as="geometry" />
        </mxCell>
        <mxCell id="0GPYcA2V2fUwD0SfGnkc-163" value="PK" style="shape=partialRectangle;connectable=0;top=0;left=0;bottom=0;right=0;fontStyle=1;overflow=hidden;whiteSpace=wrap;html=1;fontSize=14;strokeWidth=2;" parent="0GPYcA2V2fUwD0SfGnkc-162" vertex="1">
          <mxGeometry width="30" height="30" as="geometry">
            <mxRectangle width="30" height="30" as="alternateBounds" />
          </mxGeometry>
        </mxCell>
        <mxCell id="0GPYcA2V2fUwD0SfGnkc-164" value="reservation_id" style="shape=partialRectangle;connectable=0;top=0;left=0;bottom=0;right=0;align=left;spacingLeft=6;fontStyle=5;overflow=hidden;whiteSpace=wrap;html=1;fontSize=14;strokeWidth=2;" parent="0GPYcA2V2fUwD0SfGnkc-162" vertex="1">
          <mxGeometry x="30" width="150" height="30" as="geometry">
            <mxRectangle width="150" height="30" as="alternateBounds" />
          </mxGeometry>
        </mxCell>
        <mxCell id="0GPYcA2V2fUwD0SfGnkc-165" value="" style="shape=tableRow;horizontal=0;startSize=0;swimlaneHead=0;swimlaneBody=0;collapsible=0;dropTarget=0;points=[[0,0.5],[1,0.5]];portConstraint=eastwest;top=0;left=0;right=0;bottom=0;fontSize=14;strokeWidth=2;" parent="0GPYcA2V2fUwD0SfGnkc-161" vertex="1">
          <mxGeometry y="60" width="180" height="30" as="geometry" />
        </mxCell>
        <mxCell id="0GPYcA2V2fUwD0SfGnkc-166" value="FK" style="shape=partialRectangle;connectable=0;top=0;left=0;bottom=0;right=0;editable=1;overflow=hidden;whiteSpace=wrap;html=1;fontSize=14;strokeWidth=2;" parent="0GPYcA2V2fUwD0SfGnkc-165" vertex="1">
          <mxGeometry width="30" height="30" as="geometry">
            <mxRectangle width="30" height="30" as="alternateBounds" />
          </mxGeometry>
        </mxCell>
        <mxCell id="0GPYcA2V2fUwD0SfGnkc-167" value="&lt;span style=&quot;border-color: var(--border-color); font-size: 14px;&quot;&gt;user_id&lt;/span&gt;" style="shape=partialRectangle;connectable=0;top=0;left=0;bottom=0;right=0;align=left;spacingLeft=6;overflow=hidden;whiteSpace=wrap;html=1;fontSize=14;strokeWidth=2;" parent="0GPYcA2V2fUwD0SfGnkc-165" vertex="1">
          <mxGeometry x="30" width="150" height="30" as="geometry">
            <mxRectangle width="150" height="30" as="alternateBounds" />
          </mxGeometry>
        </mxCell>
        <mxCell id="0GPYcA2V2fUwD0SfGnkc-168" value="" style="shape=tableRow;horizontal=0;startSize=0;swimlaneHead=0;swimlaneBody=0;collapsible=0;dropTarget=0;points=[[0,0.5],[1,0.5]];portConstraint=eastwest;top=0;left=0;right=0;bottom=0;fontSize=14;strokeWidth=2;" parent="0GPYcA2V2fUwD0SfGnkc-161" vertex="1">
          <mxGeometry y="90" width="180" height="30" as="geometry" />
        </mxCell>
        <mxCell id="0GPYcA2V2fUwD0SfGnkc-169" value="FK" style="shape=partialRectangle;connectable=0;top=0;left=0;bottom=0;right=0;editable=1;overflow=hidden;whiteSpace=wrap;html=1;fontSize=14;strokeWidth=2;" parent="0GPYcA2V2fUwD0SfGnkc-168" vertex="1">
          <mxGeometry width="30" height="30" as="geometry">
            <mxRectangle width="30" height="30" as="alternateBounds" />
          </mxGeometry>
        </mxCell>
        <mxCell id="0GPYcA2V2fUwD0SfGnkc-170" value="course_id" style="shape=partialRectangle;connectable=0;top=0;left=0;bottom=0;right=0;align=left;spacingLeft=6;overflow=hidden;whiteSpace=wrap;html=1;fontSize=14;strokeWidth=2;" parent="0GPYcA2V2fUwD0SfGnkc-168" vertex="1">
          <mxGeometry x="30" width="150" height="30" as="geometry">
            <mxRectangle width="150" height="30" as="alternateBounds" />
          </mxGeometry>
        </mxCell>
        <mxCell id="0GPYcA2V2fUwD0SfGnkc-171" value="" style="shape=tableRow;horizontal=0;startSize=0;swimlaneHead=0;swimlaneBody=0;collapsible=0;dropTarget=0;points=[[0,0.5],[1,0.5]];portConstraint=eastwest;top=0;left=0;right=0;bottom=0;fontSize=14;strokeWidth=2;" parent="0GPYcA2V2fUwD0SfGnkc-161" vertex="1">
          <mxGeometry y="120" width="180" height="30" as="geometry" />
        </mxCell>
        <mxCell id="0GPYcA2V2fUwD0SfGnkc-172" value="FK" style="shape=partialRectangle;connectable=0;top=0;left=0;bottom=0;right=0;editable=1;overflow=hidden;whiteSpace=wrap;html=1;fontSize=14;strokeWidth=2;" parent="0GPYcA2V2fUwD0SfGnkc-171" vertex="1">
          <mxGeometry width="30" height="30" as="geometry">
            <mxRectangle width="30" height="30" as="alternateBounds" />
          </mxGeometry>
        </mxCell>
        <mxCell id="0GPYcA2V2fUwD0SfGnkc-173" value="room_id" style="shape=partialRectangle;connectable=0;top=0;left=0;bottom=0;right=0;align=left;spacingLeft=6;overflow=hidden;whiteSpace=wrap;html=1;fontSize=14;strokeWidth=2;" parent="0GPYcA2V2fUwD0SfGnkc-171" vertex="1">
          <mxGeometry x="30" width="150" height="30" as="geometry">
            <mxRectangle width="150" height="30" as="alternateBounds" />
          </mxGeometry>
        </mxCell>
        <mxCell id="0GPYcA2V2fUwD0SfGnkc-174" value="" style="shape=tableRow;horizontal=0;startSize=0;swimlaneHead=0;swimlaneBody=0;collapsible=0;dropTarget=0;points=[[0,0.5],[1,0.5]];portConstraint=eastwest;top=0;left=0;right=0;bottom=0;fontSize=14;strokeWidth=2;" parent="0GPYcA2V2fUwD0SfGnkc-161" vertex="1">
          <mxGeometry y="150" width="180" height="30" as="geometry" />
        </mxCell>
        <mxCell id="0GPYcA2V2fUwD0SfGnkc-175" value="" style="shape=partialRectangle;connectable=0;top=0;left=0;bottom=0;right=0;editable=1;overflow=hidden;whiteSpace=wrap;html=1;fontSize=14;strokeWidth=2;" parent="0GPYcA2V2fUwD0SfGnkc-174" vertex="1">
          <mxGeometry width="30" height="30" as="geometry">
            <mxRectangle width="30" height="30" as="alternateBounds" />
          </mxGeometry>
        </mxCell>
        <mxCell id="0GPYcA2V2fUwD0SfGnkc-176" value="status_code" style="shape=partialRectangle;connectable=0;top=0;left=0;bottom=0;right=0;align=left;spacingLeft=6;overflow=hidden;whiteSpace=wrap;html=1;fontSize=14;strokeWidth=2;" parent="0GPYcA2V2fUwD0SfGnkc-174" vertex="1">
          <mxGeometry x="30" width="150" height="30" as="geometry">
            <mxRectangle width="150" height="30" as="alternateBounds" />
          </mxGeometry>
        </mxCell>
        <mxCell id="0GPYcA2V2fUwD0SfGnkc-177" value="" style="shape=tableRow;horizontal=0;startSize=0;swimlaneHead=0;swimlaneBody=0;collapsible=0;dropTarget=0;points=[[0,0.5],[1,0.5]];portConstraint=eastwest;top=0;left=0;right=0;bottom=0;fontSize=14;strokeWidth=2;" parent="0GPYcA2V2fUwD0SfGnkc-161" vertex="1">
          <mxGeometry y="180" width="180" height="30" as="geometry" />
        </mxCell>
        <mxCell id="0GPYcA2V2fUwD0SfGnkc-178" value="" style="shape=partialRectangle;connectable=0;top=0;left=0;bottom=0;right=0;editable=1;overflow=hidden;whiteSpace=wrap;html=1;fontSize=14;strokeWidth=2;" parent="0GPYcA2V2fUwD0SfGnkc-177" vertex="1">
          <mxGeometry width="30" height="30" as="geometry">
            <mxRectangle width="30" height="30" as="alternateBounds" />
          </mxGeometry>
        </mxCell>
        <mxCell id="0GPYcA2V2fUwD0SfGnkc-179" value="Tran_dt" style="shape=partialRectangle;connectable=0;top=0;left=0;bottom=0;right=0;align=left;spacingLeft=6;overflow=hidden;whiteSpace=wrap;html=1;fontSize=14;strokeWidth=2;" parent="0GPYcA2V2fUwD0SfGnkc-177" vertex="1">
          <mxGeometry x="30" width="150" height="30" as="geometry">
            <mxRectangle width="150" height="30" as="alternateBounds" />
          </mxGeometry>
        </mxCell>
        <mxCell id="0GPYcA2V2fUwD0SfGnkc-180" value="" style="shape=tableRow;horizontal=0;startSize=0;swimlaneHead=0;swimlaneBody=0;collapsible=0;dropTarget=0;points=[[0,0.5],[1,0.5]];portConstraint=eastwest;top=0;left=0;right=0;bottom=0;fontSize=14;strokeWidth=2;" parent="0GPYcA2V2fUwD0SfGnkc-161" vertex="1">
          <mxGeometry y="210" width="180" height="30" as="geometry" />
        </mxCell>
        <mxCell id="0GPYcA2V2fUwD0SfGnkc-181" value="" style="shape=partialRectangle;connectable=0;top=0;left=0;bottom=0;right=0;editable=1;overflow=hidden;whiteSpace=wrap;html=1;fontSize=14;strokeWidth=2;" parent="0GPYcA2V2fUwD0SfGnkc-180" vertex="1">
          <mxGeometry width="30" height="30" as="geometry">
            <mxRectangle width="30" height="30" as="alternateBounds" />
          </mxGeometry>
        </mxCell>
        <mxCell id="0GPYcA2V2fUwD0SfGnkc-182" value="start_date" style="shape=partialRectangle;connectable=0;top=0;left=0;bottom=0;right=0;align=left;spacingLeft=6;overflow=hidden;whiteSpace=wrap;html=1;fontSize=14;strokeWidth=2;" parent="0GPYcA2V2fUwD0SfGnkc-180" vertex="1">
          <mxGeometry x="30" width="150" height="30" as="geometry">
            <mxRectangle width="150" height="30" as="alternateBounds" />
          </mxGeometry>
        </mxCell>
        <mxCell id="0GPYcA2V2fUwD0SfGnkc-183" value="" style="shape=tableRow;horizontal=0;startSize=0;swimlaneHead=0;swimlaneBody=0;collapsible=0;dropTarget=0;points=[[0,0.5],[1,0.5]];portConstraint=eastwest;top=0;left=0;right=0;bottom=0;fontSize=14;strokeWidth=2;" parent="0GPYcA2V2fUwD0SfGnkc-161" vertex="1">
          <mxGeometry y="240" width="180" height="30" as="geometry" />
        </mxCell>
        <mxCell id="0GPYcA2V2fUwD0SfGnkc-184" value="" style="shape=partialRectangle;connectable=0;top=0;left=0;bottom=0;right=0;editable=1;overflow=hidden;whiteSpace=wrap;html=1;fontSize=14;strokeWidth=2;" parent="0GPYcA2V2fUwD0SfGnkc-183" vertex="1">
          <mxGeometry width="30" height="30" as="geometry">
            <mxRectangle width="30" height="30" as="alternateBounds" />
          </mxGeometry>
        </mxCell>
        <mxCell id="0GPYcA2V2fUwD0SfGnkc-185" value="end_date" style="shape=partialRectangle;connectable=0;top=0;left=0;bottom=0;right=0;align=left;spacingLeft=6;overflow=hidden;whiteSpace=wrap;html=1;fontSize=14;strokeWidth=2;" parent="0GPYcA2V2fUwD0SfGnkc-183" vertex="1">
          <mxGeometry x="30" width="150" height="30" as="geometry">
            <mxRectangle width="150" height="30" as="alternateBounds" />
          </mxGeometry>
        </mxCell>
        <mxCell id="0GPYcA2V2fUwD0SfGnkc-189" value="" style="edgeStyle=entityRelationEdgeStyle;fontSize=14;html=1;endArrow=ERoneToMany;startArrow=ERmandOne;rounded=0;entryX=0;entryY=0.5;entryDx=0;entryDy=0;exitX=1;exitY=0.333;exitDx=0;exitDy=0;exitPerimeter=0;strokeWidth=2;" parent="1" source="0GPYcA2V2fUwD0SfGnkc-87" target="0GPYcA2V2fUwD0SfGnkc-168" edge="1">
          <mxGeometry width="100" height="100" relative="1" as="geometry">
            <mxPoint x="1910" y="435" as="sourcePoint" />
            <mxPoint x="970" y="20" as="targetPoint" />
          </mxGeometry>
        </mxCell>
        <mxCell id="0GPYcA2V2fUwD0SfGnkc-193" value="" style="edgeStyle=entityRelationEdgeStyle;fontSize=14;html=1;endArrow=ERoneToMany;startArrow=ERmandOne;rounded=0;entryX=0;entryY=0.5;entryDx=0;entryDy=0;exitX=1;exitY=0.5;exitDx=0;exitDy=0;strokeWidth=2;" parent="1" source="0GPYcA2V2fUwD0SfGnkc-123" target="0GPYcA2V2fUwD0SfGnkc-171" edge="1">
          <mxGeometry width="100" height="100" relative="1" as="geometry">
            <mxPoint x="1450" y="775" as="sourcePoint" />
            <mxPoint x="1890" y="745" as="targetPoint" />
          </mxGeometry>
        </mxCell>
        <mxCell id="0GPYcA2V2fUwD0SfGnkc-200" value="" style="fontSize=14;html=1;endArrow=ERoneToMany;startArrow=ERmandOne;rounded=0;entryX=0;entryY=0.5;entryDx=0;entryDy=0;exitX=0;exitY=0.5;exitDx=0;exitDy=0;strokeWidth=2;" parent="1" source="0GPYcA2V2fUwD0SfGnkc-123" target="0GPYcA2V2fUwD0SfGnkc-90" edge="1">
          <mxGeometry width="100" height="100" relative="1" as="geometry">
            <mxPoint x="1190" y="745" as="sourcePoint" />
            <mxPoint x="1600" y="450" as="targetPoint" />
            <Array as="points">
              <mxPoint x="1670" y="710" />
              <mxPoint x="1670" y="575" />
              <mxPoint x="1720" y="460" />
            </Array>
          </mxGeometry>
        </mxCell>
        <mxCell id="0GPYcA2V2fUwD0SfGnkc-201" value="" style="fontSize=14;html=1;endArrow=ERoneToMany;startArrow=ERmandOne;rounded=0;entryX=1;entryY=0.5;entryDx=0;entryDy=0;exitX=0;exitY=0.5;exitDx=0;exitDy=0;strokeWidth=2;" parent="1" source="0GPYcA2V2fUwD0SfGnkc-231" target="0GPYcA2V2fUwD0SfGnkc-165" edge="1">
          <mxGeometry width="100" height="100" relative="1" as="geometry">
            <mxPoint x="2310" y="605" as="sourcePoint" />
            <mxPoint x="2040" y="360" as="targetPoint" />
            <Array as="points">
              <mxPoint x="2230" y="710" />
              <mxPoint x="2230" y="590" />
            </Array>
          </mxGeometry>
        </mxCell>
        <mxCell id="0GPYcA2V2fUwD0SfGnkc-215" value="&lt;font style=&quot;font-size: 14px;&quot;&gt;Lecturer&lt;/font&gt;" style="shape=table;startSize=30;container=1;collapsible=1;childLayout=tableLayout;fixedRows=1;rowLines=0;fontStyle=1;align=center;resizeLast=1;html=1;fontSize=14;strokeWidth=2;" parent="1" vertex="1">
          <mxGeometry x="2270" y="340" width="180" height="90" as="geometry" />
        </mxCell>
        <mxCell id="0GPYcA2V2fUwD0SfGnkc-216" value="" style="shape=tableRow;horizontal=0;startSize=0;swimlaneHead=0;swimlaneBody=0;collapsible=0;dropTarget=0;points=[[0,0.5],[1,0.5]];portConstraint=eastwest;top=0;left=0;right=0;bottom=1;fontSize=14;strokeWidth=2;" parent="0GPYcA2V2fUwD0SfGnkc-215" vertex="1">
          <mxGeometry y="30" width="180" height="30" as="geometry" />
        </mxCell>
        <mxCell id="0GPYcA2V2fUwD0SfGnkc-217" value="PK" style="shape=partialRectangle;connectable=0;top=0;left=0;bottom=0;right=0;fontStyle=1;overflow=hidden;whiteSpace=wrap;html=1;fontSize=14;strokeWidth=2;" parent="0GPYcA2V2fUwD0SfGnkc-216" vertex="1">
          <mxGeometry width="30" height="30" as="geometry">
            <mxRectangle width="30" height="30" as="alternateBounds" />
          </mxGeometry>
        </mxCell>
        <mxCell id="0GPYcA2V2fUwD0SfGnkc-218" value="&lt;u style=&quot;border-color: var(--border-color); font-weight: 400; font-size: 14px;&quot;&gt;lect_id&lt;/u&gt;" style="shape=partialRectangle;connectable=0;top=0;left=0;bottom=0;right=0;align=left;spacingLeft=6;fontStyle=5;overflow=hidden;whiteSpace=wrap;html=1;fontSize=14;strokeWidth=2;" parent="0GPYcA2V2fUwD0SfGnkc-216" vertex="1">
          <mxGeometry x="30" width="150" height="30" as="geometry">
            <mxRectangle width="150" height="30" as="alternateBounds" />
          </mxGeometry>
        </mxCell>
        <mxCell id="9-79MuSGfvIbIaJEf-zn-18" value="" style="shape=tableRow;horizontal=0;startSize=0;swimlaneHead=0;swimlaneBody=0;collapsible=0;dropTarget=0;points=[[0,0.5],[1,0.5]];portConstraint=eastwest;top=0;left=0;right=0;bottom=0;fontSize=14;strokeWidth=2;" parent="0GPYcA2V2fUwD0SfGnkc-215" vertex="1">
          <mxGeometry y="60" width="180" height="30" as="geometry" />
        </mxCell>
        <mxCell id="9-79MuSGfvIbIaJEf-zn-19" value="" style="shape=partialRectangle;connectable=0;top=0;left=0;bottom=0;right=0;editable=1;overflow=hidden;whiteSpace=wrap;html=1;fontSize=14;strokeWidth=2;" parent="9-79MuSGfvIbIaJEf-zn-18" vertex="1">
          <mxGeometry width="30" height="30" as="geometry">
            <mxRectangle width="30" height="30" as="alternateBounds" />
          </mxGeometry>
        </mxCell>
        <mxCell id="9-79MuSGfvIbIaJEf-zn-20" value="&lt;span style=&quot;border-color: var(--border-color); font-size: 14px;&quot;&gt;lect_name&lt;/span&gt;" style="shape=partialRectangle;connectable=0;top=0;left=0;bottom=0;right=0;align=left;spacingLeft=6;overflow=hidden;whiteSpace=wrap;html=1;fontSize=14;strokeWidth=2;" parent="9-79MuSGfvIbIaJEf-zn-18" vertex="1">
          <mxGeometry x="30" width="150" height="30" as="geometry">
            <mxRectangle width="150" height="30" as="alternateBounds" />
          </mxGeometry>
        </mxCell>
        <mxCell id="0GPYcA2V2fUwD0SfGnkc-230" value="&lt;font style=&quot;font-size: 19px;&quot;&gt;Users&lt;/font&gt;" style="shape=table;startSize=30;container=1;collapsible=1;childLayout=tableLayout;fixedRows=1;rowLines=0;fontStyle=1;align=center;resizeLast=1;html=1;fontSize=14;strokeWidth=2;" parent="1" vertex="1">
          <mxGeometry x="2270" y="665" width="180" height="150" as="geometry" />
        </mxCell>
        <mxCell id="0GPYcA2V2fUwD0SfGnkc-231" value="" style="shape=tableRow;horizontal=0;startSize=0;swimlaneHead=0;swimlaneBody=0;collapsible=0;dropTarget=0;points=[[0,0.5],[1,0.5]];portConstraint=eastwest;top=0;left=0;right=0;bottom=1;fontSize=14;strokeWidth=2;" parent="0GPYcA2V2fUwD0SfGnkc-230" vertex="1">
          <mxGeometry y="30" width="180" height="30" as="geometry" />
        </mxCell>
        <mxCell id="0GPYcA2V2fUwD0SfGnkc-232" value="PK" style="shape=partialRectangle;connectable=0;top=0;left=0;bottom=0;right=0;fontStyle=1;overflow=hidden;whiteSpace=wrap;html=1;fontSize=14;strokeWidth=2;" parent="0GPYcA2V2fUwD0SfGnkc-231" vertex="1">
          <mxGeometry width="30" height="30" as="geometry">
            <mxRectangle width="30" height="30" as="alternateBounds" />
          </mxGeometry>
        </mxCell>
        <mxCell id="0GPYcA2V2fUwD0SfGnkc-233" value="&lt;u style=&quot;border-color: var(--border-color); font-weight: 400; font-size: 14px;&quot;&gt;user_id&lt;/u&gt;" style="shape=partialRectangle;connectable=0;top=0;left=0;bottom=0;right=0;align=left;spacingLeft=6;fontStyle=5;overflow=hidden;whiteSpace=wrap;html=1;fontSize=14;strokeWidth=2;" parent="0GPYcA2V2fUwD0SfGnkc-231" vertex="1">
          <mxGeometry x="30" width="150" height="30" as="geometry">
            <mxRectangle width="150" height="30" as="alternateBounds" />
          </mxGeometry>
        </mxCell>
        <mxCell id="0GPYcA2V2fUwD0SfGnkc-237" value="" style="shape=tableRow;horizontal=0;startSize=0;swimlaneHead=0;swimlaneBody=0;collapsible=0;dropTarget=0;points=[[0,0.5],[1,0.5]];portConstraint=eastwest;top=0;left=0;right=0;bottom=0;fontSize=14;strokeWidth=2;" parent="0GPYcA2V2fUwD0SfGnkc-230" vertex="1">
          <mxGeometry y="60" width="180" height="30" as="geometry" />
        </mxCell>
        <mxCell id="0GPYcA2V2fUwD0SfGnkc-238" value="" style="shape=partialRectangle;connectable=0;top=0;left=0;bottom=0;right=0;editable=1;overflow=hidden;whiteSpace=wrap;html=1;fontSize=14;strokeWidth=2;" parent="0GPYcA2V2fUwD0SfGnkc-237" vertex="1">
          <mxGeometry width="30" height="30" as="geometry">
            <mxRectangle width="30" height="30" as="alternateBounds" />
          </mxGeometry>
        </mxCell>
        <mxCell id="0GPYcA2V2fUwD0SfGnkc-239" value="password" style="shape=partialRectangle;connectable=0;top=0;left=0;bottom=0;right=0;align=left;spacingLeft=6;overflow=hidden;whiteSpace=wrap;html=1;fontSize=14;strokeWidth=2;" parent="0GPYcA2V2fUwD0SfGnkc-237" vertex="1">
          <mxGeometry x="30" width="150" height="30" as="geometry">
            <mxRectangle width="150" height="30" as="alternateBounds" />
          </mxGeometry>
        </mxCell>
        <mxCell id="EJPrZZuxSMaAchptQmQv-1" value="" style="shape=tableRow;horizontal=0;startSize=0;swimlaneHead=0;swimlaneBody=0;collapsible=0;dropTarget=0;points=[[0,0.5],[1,0.5]];portConstraint=eastwest;top=0;left=0;right=0;bottom=0;fontSize=14;strokeWidth=2;" parent="0GPYcA2V2fUwD0SfGnkc-230" vertex="1">
          <mxGeometry y="90" width="180" height="30" as="geometry" />
        </mxCell>
        <mxCell id="EJPrZZuxSMaAchptQmQv-2" value="" style="shape=partialRectangle;connectable=0;top=0;left=0;bottom=0;right=0;editable=1;overflow=hidden;whiteSpace=wrap;html=1;fontSize=14;strokeWidth=2;" parent="EJPrZZuxSMaAchptQmQv-1" vertex="1">
          <mxGeometry width="30" height="30" as="geometry">
            <mxRectangle width="30" height="30" as="alternateBounds" />
          </mxGeometry>
        </mxCell>
        <mxCell id="EJPrZZuxSMaAchptQmQv-3" value="user_name" style="shape=partialRectangle;connectable=0;top=0;left=0;bottom=0;right=0;align=left;spacingLeft=6;overflow=hidden;whiteSpace=wrap;html=1;fontSize=14;strokeWidth=2;" parent="EJPrZZuxSMaAchptQmQv-1" vertex="1">
          <mxGeometry x="30" width="150" height="30" as="geometry">
            <mxRectangle width="150" height="30" as="alternateBounds" />
          </mxGeometry>
        </mxCell>
        <mxCell id="EJPrZZuxSMaAchptQmQv-4" value="" style="shape=tableRow;horizontal=0;startSize=0;swimlaneHead=0;swimlaneBody=0;collapsible=0;dropTarget=0;points=[[0,0.5],[1,0.5]];portConstraint=eastwest;top=0;left=0;right=0;bottom=0;fontSize=14;strokeWidth=2;" parent="0GPYcA2V2fUwD0SfGnkc-230" vertex="1">
          <mxGeometry y="120" width="180" height="30" as="geometry" />
        </mxCell>
        <mxCell id="EJPrZZuxSMaAchptQmQv-5" value="" style="shape=partialRectangle;connectable=0;top=0;left=0;bottom=0;right=0;editable=1;overflow=hidden;whiteSpace=wrap;html=1;fontSize=14;strokeWidth=2;" parent="EJPrZZuxSMaAchptQmQv-4" vertex="1">
          <mxGeometry width="30" height="30" as="geometry">
            <mxRectangle width="30" height="30" as="alternateBounds" />
          </mxGeometry>
        </mxCell>
        <mxCell id="EJPrZZuxSMaAchptQmQv-6" value="role" style="shape=partialRectangle;connectable=0;top=0;left=0;bottom=0;right=0;align=left;spacingLeft=6;overflow=hidden;whiteSpace=wrap;html=1;fontSize=14;strokeWidth=2;" parent="EJPrZZuxSMaAchptQmQv-4" vertex="1">
          <mxGeometry x="30" width="150" height="30" as="geometry">
            <mxRectangle width="150" height="30" as="alternateBounds" />
          </mxGeometry>
        </mxCell>
        <mxCell id="9-79MuSGfvIbIaJEf-zn-4" value="&lt;font style=&quot;font-size: 19px;&quot;&gt;RoomType&lt;/font&gt;" style="shape=table;startSize=30;container=1;collapsible=1;childLayout=tableLayout;fixedRows=1;rowLines=0;fontStyle=1;align=center;resizeLast=1;html=1;fontSize=14;strokeWidth=2;" parent="1" vertex="1">
          <mxGeometry x="1730" y="865" width="180" height="90" as="geometry" />
        </mxCell>
        <mxCell id="9-79MuSGfvIbIaJEf-zn-5" value="" style="shape=tableRow;horizontal=0;startSize=0;swimlaneHead=0;swimlaneBody=0;collapsible=0;dropTarget=0;points=[[0,0.5],[1,0.5]];portConstraint=eastwest;top=0;left=0;right=0;bottom=1;fontSize=14;strokeWidth=2;" parent="9-79MuSGfvIbIaJEf-zn-4" vertex="1">
          <mxGeometry y="30" width="180" height="30" as="geometry" />
        </mxCell>
        <mxCell id="9-79MuSGfvIbIaJEf-zn-6" value="PK" style="shape=partialRectangle;connectable=0;top=0;left=0;bottom=0;right=0;fontStyle=1;overflow=hidden;whiteSpace=wrap;html=1;fontSize=14;strokeWidth=2;" parent="9-79MuSGfvIbIaJEf-zn-5" vertex="1">
          <mxGeometry width="20" height="30" as="geometry">
            <mxRectangle width="20" height="30" as="alternateBounds" />
          </mxGeometry>
        </mxCell>
        <mxCell id="9-79MuSGfvIbIaJEf-zn-7" value="roomtype_id" style="shape=partialRectangle;connectable=0;top=0;left=0;bottom=0;right=0;align=left;spacingLeft=6;fontStyle=5;overflow=hidden;whiteSpace=wrap;html=1;fontSize=14;strokeWidth=2;" parent="9-79MuSGfvIbIaJEf-zn-5" vertex="1">
          <mxGeometry x="20" width="160" height="30" as="geometry">
            <mxRectangle width="160" height="30" as="alternateBounds" />
          </mxGeometry>
        </mxCell>
        <mxCell id="9-79MuSGfvIbIaJEf-zn-8" value="" style="shape=tableRow;horizontal=0;startSize=0;swimlaneHead=0;swimlaneBody=0;collapsible=0;dropTarget=0;points=[[0,0.5],[1,0.5]];portConstraint=eastwest;top=0;left=0;right=0;bottom=0;fontSize=14;strokeWidth=2;" parent="9-79MuSGfvIbIaJEf-zn-4" vertex="1">
          <mxGeometry y="60" width="180" height="30" as="geometry" />
        </mxCell>
        <mxCell id="9-79MuSGfvIbIaJEf-zn-9" value="" style="shape=partialRectangle;connectable=0;top=0;left=0;bottom=0;right=0;editable=1;overflow=hidden;whiteSpace=wrap;html=1;fontSize=14;strokeWidth=2;" parent="9-79MuSGfvIbIaJEf-zn-8" vertex="1">
          <mxGeometry width="20" height="30" as="geometry">
            <mxRectangle width="20" height="30" as="alternateBounds" />
          </mxGeometry>
        </mxCell>
        <mxCell id="9-79MuSGfvIbIaJEf-zn-10" value="roomtype_name" style="shape=partialRectangle;connectable=0;top=0;left=0;bottom=0;right=0;align=left;spacingLeft=6;overflow=hidden;whiteSpace=wrap;html=1;fontSize=14;strokeWidth=2;" parent="9-79MuSGfvIbIaJEf-zn-8" vertex="1">
          <mxGeometry x="20" width="160" height="30" as="geometry">
            <mxRectangle width="160" height="30" as="alternateBounds" />
          </mxGeometry>
        </mxCell>
        <mxCell id="9-79MuSGfvIbIaJEf-zn-22" value="" style="fontSize=14;html=1;endArrow=ERzeroToOne;startArrow=ERmandOne;rounded=0;entryX=0.989;entryY=1.233;entryDx=0;entryDy=0;exitX=1;exitY=0.5;exitDx=0;exitDy=0;entryPerimeter=0;strokeWidth=2;" parent="1" source="0GPYcA2V2fUwD0SfGnkc-216" target="0GPYcA2V2fUwD0SfGnkc-231" edge="1">
          <mxGeometry width="100" height="100" relative="1" as="geometry">
            <mxPoint x="2710" y="345" as="sourcePoint" />
            <mxPoint x="2460" y="600" as="targetPoint" />
            <Array as="points">
              <mxPoint x="2510" y="385" />
              <mxPoint x="2510" y="732" />
            </Array>
          </mxGeometry>
        </mxCell>
        <mxCell id="Vi6DOaER6Xm1PYwhtJ3J-11" value="&lt;font style=&quot;font-size: 19px;&quot;&gt;Calendar&lt;/font&gt;" style="shape=table;startSize=30;container=1;collapsible=1;childLayout=tableLayout;fixedRows=1;rowLines=0;fontStyle=1;align=center;resizeLast=1;html=1;fontSize=14;strokeWidth=2;" parent="1" vertex="1">
          <mxGeometry x="1430" y="690" width="180" height="150" as="geometry" />
        </mxCell>
        <mxCell id="Vi6DOaER6Xm1PYwhtJ3J-12" value="" style="shape=tableRow;horizontal=0;startSize=0;swimlaneHead=0;swimlaneBody=0;collapsible=0;dropTarget=0;points=[[0,0.5],[1,0.5]];portConstraint=eastwest;top=0;left=0;right=0;bottom=0;fontSize=14;strokeWidth=2;" parent="Vi6DOaER6Xm1PYwhtJ3J-11" vertex="1">
          <mxGeometry y="30" width="180" height="30" as="geometry" />
        </mxCell>
        <mxCell id="Vi6DOaER6Xm1PYwhtJ3J-13" value="PK" style="shape=partialRectangle;connectable=0;top=0;left=0;bottom=0;right=0;editable=1;overflow=hidden;whiteSpace=wrap;html=1;fontSize=14;strokeWidth=2;" parent="Vi6DOaER6Xm1PYwhtJ3J-12" vertex="1">
          <mxGeometry width="30" height="30" as="geometry">
            <mxRectangle width="30" height="30" as="alternateBounds" />
          </mxGeometry>
        </mxCell>
        <mxCell id="Vi6DOaER6Xm1PYwhtJ3J-14" value="&lt;u style=&quot;font-size: 14px;&quot;&gt;&lt;b style=&quot;font-size: 14px;&quot;&gt;Years&lt;/b&gt;&lt;/u&gt;" style="shape=partialRectangle;connectable=0;top=0;left=0;bottom=0;right=0;align=left;spacingLeft=6;overflow=hidden;whiteSpace=wrap;html=1;fontSize=14;strokeWidth=2;" parent="Vi6DOaER6Xm1PYwhtJ3J-12" vertex="1">
          <mxGeometry x="30" width="150" height="30" as="geometry">
            <mxRectangle width="150" height="30" as="alternateBounds" />
          </mxGeometry>
        </mxCell>
        <mxCell id="Vi6DOaER6Xm1PYwhtJ3J-15" value="" style="shape=tableRow;horizontal=0;startSize=0;swimlaneHead=0;swimlaneBody=0;collapsible=0;dropTarget=0;points=[[0,0.5],[1,0.5]];portConstraint=eastwest;top=0;left=0;right=0;bottom=0;fontSize=14;strokeWidth=2;" parent="Vi6DOaER6Xm1PYwhtJ3J-11" vertex="1">
          <mxGeometry y="60" width="180" height="30" as="geometry" />
        </mxCell>
        <mxCell id="Vi6DOaER6Xm1PYwhtJ3J-16" value="PK" style="shape=partialRectangle;connectable=0;top=0;left=0;bottom=0;right=0;editable=1;overflow=hidden;whiteSpace=wrap;html=1;fontSize=14;strokeWidth=2;" parent="Vi6DOaER6Xm1PYwhtJ3J-15" vertex="1">
          <mxGeometry width="30" height="30" as="geometry">
            <mxRectangle width="30" height="30" as="alternateBounds" />
          </mxGeometry>
        </mxCell>
        <mxCell id="Vi6DOaER6Xm1PYwhtJ3J-17" value="&lt;u style=&quot;font-size: 14px;&quot;&gt;&lt;b style=&quot;font-size: 14px;&quot;&gt;Term&lt;/b&gt;&lt;/u&gt;" style="shape=partialRectangle;connectable=0;top=0;left=0;bottom=0;right=0;align=left;spacingLeft=6;overflow=hidden;whiteSpace=wrap;html=1;fontSize=14;strokeWidth=2;" parent="Vi6DOaER6Xm1PYwhtJ3J-15" vertex="1">
          <mxGeometry x="30" width="150" height="30" as="geometry">
            <mxRectangle width="150" height="30" as="alternateBounds" />
          </mxGeometry>
        </mxCell>
        <mxCell id="Vi6DOaER6Xm1PYwhtJ3J-18" value="" style="shape=tableRow;horizontal=0;startSize=0;swimlaneHead=0;swimlaneBody=0;collapsible=0;dropTarget=0;points=[[0,0.5],[1,0.5]];portConstraint=eastwest;top=0;left=0;right=0;bottom=0;fontSize=14;strokeWidth=2;" parent="Vi6DOaER6Xm1PYwhtJ3J-11" vertex="1">
          <mxGeometry y="90" width="180" height="30" as="geometry" />
        </mxCell>
        <mxCell id="Vi6DOaER6Xm1PYwhtJ3J-19" value="" style="shape=partialRectangle;connectable=0;top=0;left=0;bottom=0;right=0;editable=1;overflow=hidden;whiteSpace=wrap;html=1;fontSize=14;strokeWidth=2;" parent="Vi6DOaER6Xm1PYwhtJ3J-18" vertex="1">
          <mxGeometry width="30" height="30" as="geometry">
            <mxRectangle width="30" height="30" as="alternateBounds" />
          </mxGeometry>
        </mxCell>
        <mxCell id="Vi6DOaER6Xm1PYwhtJ3J-20" value="date_begin" style="shape=partialRectangle;connectable=0;top=0;left=0;bottom=0;right=0;align=left;spacingLeft=6;overflow=hidden;whiteSpace=wrap;html=1;fontSize=14;strokeWidth=2;" parent="Vi6DOaER6Xm1PYwhtJ3J-18" vertex="1">
          <mxGeometry x="30" width="150" height="30" as="geometry">
            <mxRectangle width="150" height="30" as="alternateBounds" />
          </mxGeometry>
        </mxCell>
        <mxCell id="Vi6DOaER6Xm1PYwhtJ3J-21" value="" style="shape=tableRow;horizontal=0;startSize=0;swimlaneHead=0;swimlaneBody=0;collapsible=0;dropTarget=0;points=[[0,0.5],[1,0.5]];portConstraint=eastwest;top=0;left=0;right=0;bottom=0;fontSize=14;strokeWidth=2;" parent="Vi6DOaER6Xm1PYwhtJ3J-11" vertex="1">
          <mxGeometry y="120" width="180" height="30" as="geometry" />
        </mxCell>
        <mxCell id="Vi6DOaER6Xm1PYwhtJ3J-22" value="" style="shape=partialRectangle;connectable=0;top=0;left=0;bottom=0;right=0;editable=1;overflow=hidden;whiteSpace=wrap;html=1;fontSize=14;strokeWidth=2;" parent="Vi6DOaER6Xm1PYwhtJ3J-21" vertex="1">
          <mxGeometry width="30" height="30" as="geometry">
            <mxRectangle width="30" height="30" as="alternateBounds" />
          </mxGeometry>
        </mxCell>
        <mxCell id="Vi6DOaER6Xm1PYwhtJ3J-23" value="date_end" style="shape=partialRectangle;connectable=0;top=0;left=0;bottom=0;right=0;align=left;spacingLeft=6;overflow=hidden;whiteSpace=wrap;html=1;fontSize=14;strokeWidth=2;" parent="Vi6DOaER6Xm1PYwhtJ3J-21" vertex="1">
          <mxGeometry x="30" width="150" height="30" as="geometry">
            <mxRectangle width="150" height="30" as="alternateBounds" />
          </mxGeometry>
        </mxCell>
        <mxCell id="Vi6DOaER6Xm1PYwhtJ3J-30" value="" style="endArrow=none;html=1;rounded=0;exitX=-0.004;exitY=-0.048;exitDx=0;exitDy=0;exitPerimeter=0;entryX=1.009;entryY=0.914;entryDx=0;entryDy=0;entryPerimeter=0;fontSize=14;strokeWidth=2;" parent="Vi6DOaER6Xm1PYwhtJ3J-11" source="Vi6DOaER6Xm1PYwhtJ3J-18" target="Vi6DOaER6Xm1PYwhtJ3J-15" edge="1">
          <mxGeometry width="50" height="50" relative="1" as="geometry">
            <mxPoint x="110" y="100" as="sourcePoint" />
            <mxPoint x="160" y="50" as="targetPoint" />
          </mxGeometry>
        </mxCell>
        <mxCell id="wSuyMRcFfdZL_mGHcCNh-1" value="&lt;font style=&quot;font-size: 19px;&quot;&gt;Reservation_detail&lt;/font&gt;" style="shape=table;startSize=30;container=1;collapsible=1;childLayout=tableLayout;fixedRows=1;rowLines=0;fontStyle=1;align=center;resizeLast=1;html=1;fontSize=14;strokeWidth=2;" parent="1" vertex="1">
          <mxGeometry x="2270" y="515" width="220" height="120" as="geometry" />
        </mxCell>
        <mxCell id="wSuyMRcFfdZL_mGHcCNh-2" value="" style="shape=tableRow;horizontal=0;startSize=0;swimlaneHead=0;swimlaneBody=0;collapsible=0;dropTarget=0;points=[[0,0.5],[1,0.5]];portConstraint=eastwest;top=0;left=0;right=0;bottom=1;fontSize=14;strokeWidth=2;" parent="wSuyMRcFfdZL_mGHcCNh-1" vertex="1">
          <mxGeometry y="30" width="220" height="30" as="geometry" />
        </mxCell>
        <mxCell id="wSuyMRcFfdZL_mGHcCNh-3" value="PK" style="shape=partialRectangle;connectable=0;top=0;left=0;bottom=0;right=0;fontStyle=1;overflow=hidden;whiteSpace=wrap;html=1;fontSize=14;strokeWidth=2;" parent="wSuyMRcFfdZL_mGHcCNh-2" vertex="1">
          <mxGeometry width="20" height="30" as="geometry">
            <mxRectangle width="20" height="30" as="alternateBounds" />
          </mxGeometry>
        </mxCell>
        <mxCell id="wSuyMRcFfdZL_mGHcCNh-4" value="reservation_id" style="shape=partialRectangle;connectable=0;top=0;left=0;bottom=0;right=0;align=left;spacingLeft=6;fontStyle=5;overflow=hidden;whiteSpace=wrap;html=1;fontSize=14;strokeWidth=2;" parent="wSuyMRcFfdZL_mGHcCNh-2" vertex="1">
          <mxGeometry x="20" width="200" height="30" as="geometry">
            <mxRectangle width="200" height="30" as="alternateBounds" />
          </mxGeometry>
        </mxCell>
        <mxCell id="wSuyMRcFfdZL_mGHcCNh-5" value="" style="shape=tableRow;horizontal=0;startSize=0;swimlaneHead=0;swimlaneBody=0;collapsible=0;dropTarget=0;points=[[0,0.5],[1,0.5]];portConstraint=eastwest;top=0;left=0;right=0;bottom=0;fontSize=14;strokeWidth=2;" parent="wSuyMRcFfdZL_mGHcCNh-1" vertex="1">
          <mxGeometry y="60" width="220" height="30" as="geometry" />
        </mxCell>
        <mxCell id="wSuyMRcFfdZL_mGHcCNh-6" value="PK" style="shape=partialRectangle;connectable=0;top=0;left=0;bottom=0;right=0;editable=1;overflow=hidden;whiteSpace=wrap;html=1;fontSize=14;strokeWidth=2;" parent="wSuyMRcFfdZL_mGHcCNh-5" vertex="1">
          <mxGeometry width="20" height="30" as="geometry">
            <mxRectangle width="20" height="30" as="alternateBounds" />
          </mxGeometry>
        </mxCell>
        <mxCell id="wSuyMRcFfdZL_mGHcCNh-7" value="&lt;u style=&quot;font-size: 14px;&quot;&gt;reservation_date&lt;/u&gt;" style="shape=partialRectangle;connectable=0;top=0;left=0;bottom=0;right=0;align=left;spacingLeft=6;overflow=hidden;whiteSpace=wrap;html=1;fontSize=14;strokeWidth=2;" parent="wSuyMRcFfdZL_mGHcCNh-5" vertex="1">
          <mxGeometry x="20" width="200" height="30" as="geometry">
            <mxRectangle width="200" height="30" as="alternateBounds" />
          </mxGeometry>
        </mxCell>
        <mxCell id="mzToehtBP3OvZRR5gY4_-11" value="" style="shape=tableRow;horizontal=0;startSize=0;swimlaneHead=0;swimlaneBody=0;collapsible=0;dropTarget=0;points=[[0,0.5],[1,0.5]];portConstraint=eastwest;top=0;left=0;right=0;bottom=0;fontSize=14;strokeWidth=2;" parent="wSuyMRcFfdZL_mGHcCNh-1" vertex="1">
          <mxGeometry y="90" width="220" height="30" as="geometry" />
        </mxCell>
        <mxCell id="mzToehtBP3OvZRR5gY4_-12" value="PK" style="shape=partialRectangle;connectable=0;top=0;left=0;bottom=0;right=0;editable=1;overflow=hidden;whiteSpace=wrap;html=1;fontSize=14;strokeWidth=2;" parent="mzToehtBP3OvZRR5gY4_-11" vertex="1">
          <mxGeometry width="20" height="30" as="geometry">
            <mxRectangle width="20" height="30" as="alternateBounds" />
          </mxGeometry>
        </mxCell>
        <mxCell id="mzToehtBP3OvZRR5gY4_-13" value="&lt;u style=&quot;font-size: 14px;&quot;&gt;&amp;nbsp;reservation_time&lt;/u&gt;" style="shape=partialRectangle;connectable=0;top=0;left=0;bottom=0;right=0;align=left;spacingLeft=6;overflow=hidden;whiteSpace=wrap;html=1;fontSize=14;strokeWidth=2;" parent="mzToehtBP3OvZRR5gY4_-11" vertex="1">
          <mxGeometry x="20" width="200" height="30" as="geometry">
            <mxRectangle width="200" height="30" as="alternateBounds" />
          </mxGeometry>
        </mxCell>
        <mxCell id="wSuyMRcFfdZL_mGHcCNh-9" value="" style="fontSize=14;html=1;endArrow=ERoneToMany;startArrow=ERmandOne;rounded=0;entryX=0;entryY=0.5;entryDx=0;entryDy=0;exitX=1;exitY=0.5;exitDx=0;exitDy=0;strokeWidth=2;" parent="1" source="0GPYcA2V2fUwD0SfGnkc-162" target="wSuyMRcFfdZL_mGHcCNh-2" edge="1">
          <mxGeometry width="100" height="100" relative="1" as="geometry">
            <mxPoint x="2040" y="965" as="sourcePoint" />
            <mxPoint x="2200" y="834.9999999999998" as="targetPoint" />
            <Array as="points" />
          </mxGeometry>
        </mxCell>
        <mxCell id="mzToehtBP3OvZRR5gY4_-1" value="&lt;font style=&quot;font-size: 19px;&quot;&gt;staft&lt;/font&gt;" style="shape=table;startSize=30;container=1;collapsible=1;childLayout=tableLayout;fixedRows=1;rowLines=0;fontStyle=1;align=center;resizeLast=1;html=1;fontSize=14;strokeWidth=2;" parent="1" vertex="1">
          <mxGeometry x="2270" y="875" width="180" height="90" as="geometry" />
        </mxCell>
        <mxCell id="mzToehtBP3OvZRR5gY4_-2" value="" style="shape=tableRow;horizontal=0;startSize=0;swimlaneHead=0;swimlaneBody=0;collapsible=0;dropTarget=0;points=[[0,0.5],[1,0.5]];portConstraint=eastwest;top=0;left=0;right=0;bottom=1;fontSize=14;strokeWidth=2;" parent="mzToehtBP3OvZRR5gY4_-1" vertex="1">
          <mxGeometry y="30" width="180" height="30" as="geometry" />
        </mxCell>
        <mxCell id="mzToehtBP3OvZRR5gY4_-3" value="PK" style="shape=partialRectangle;connectable=0;top=0;left=0;bottom=0;right=0;fontStyle=1;overflow=hidden;whiteSpace=wrap;html=1;fontSize=14;strokeWidth=2;" parent="mzToehtBP3OvZRR5gY4_-2" vertex="1">
          <mxGeometry width="30" height="30" as="geometry">
            <mxRectangle width="30" height="30" as="alternateBounds" />
          </mxGeometry>
        </mxCell>
        <mxCell id="mzToehtBP3OvZRR5gY4_-4" value="&lt;span style=&quot;font-weight: 400; font-size: 14px;&quot;&gt;staft_id&lt;/span&gt;" style="shape=partialRectangle;connectable=0;top=0;left=0;bottom=0;right=0;align=left;spacingLeft=6;fontStyle=5;overflow=hidden;whiteSpace=wrap;html=1;fontSize=14;strokeWidth=2;" parent="mzToehtBP3OvZRR5gY4_-2" vertex="1">
          <mxGeometry x="30" width="150" height="30" as="geometry">
            <mxRectangle width="150" height="30" as="alternateBounds" />
          </mxGeometry>
        </mxCell>
        <mxCell id="mzToehtBP3OvZRR5gY4_-5" value="" style="shape=tableRow;horizontal=0;startSize=0;swimlaneHead=0;swimlaneBody=0;collapsible=0;dropTarget=0;points=[[0,0.5],[1,0.5]];portConstraint=eastwest;top=0;left=0;right=0;bottom=0;fontSize=14;strokeWidth=2;" parent="mzToehtBP3OvZRR5gY4_-1" vertex="1">
          <mxGeometry y="60" width="180" height="30" as="geometry" />
        </mxCell>
        <mxCell id="mzToehtBP3OvZRR5gY4_-6" value="" style="shape=partialRectangle;connectable=0;top=0;left=0;bottom=0;right=0;editable=1;overflow=hidden;whiteSpace=wrap;html=1;fontSize=14;strokeWidth=2;" parent="mzToehtBP3OvZRR5gY4_-5" vertex="1">
          <mxGeometry width="30" height="30" as="geometry">
            <mxRectangle width="30" height="30" as="alternateBounds" />
          </mxGeometry>
        </mxCell>
        <mxCell id="mzToehtBP3OvZRR5gY4_-7" value="&lt;span style=&quot;border-color: var(--border-color); font-size: 14px;&quot;&gt;staft_name&lt;/span&gt;" style="shape=partialRectangle;connectable=0;top=0;left=0;bottom=0;right=0;align=left;spacingLeft=6;overflow=hidden;whiteSpace=wrap;html=1;fontSize=14;strokeWidth=2;" parent="mzToehtBP3OvZRR5gY4_-5" vertex="1">
          <mxGeometry x="30" width="150" height="30" as="geometry">
            <mxRectangle width="150" height="30" as="alternateBounds" />
          </mxGeometry>
        </mxCell>
        <mxCell id="mzToehtBP3OvZRR5gY4_-14" value="" style="fontSize=14;html=1;endArrow=ERzeroToOne;startArrow=ERmandOne;rounded=0;entryX=1;entryY=0.75;entryDx=0;entryDy=0;exitX=1;exitY=0.5;exitDx=0;exitDy=0;strokeWidth=2;" parent="1" source="mzToehtBP3OvZRR5gY4_-1" target="0GPYcA2V2fUwD0SfGnkc-230" edge="1">
          <mxGeometry width="100" height="100" relative="1" as="geometry">
            <mxPoint x="2560" y="915" as="sourcePoint" />
            <mxPoint x="3038" y="1042" as="targetPoint" />
            <Array as="points">
              <mxPoint x="2490" y="920" />
              <mxPoint x="2490" y="775" />
            </Array>
          </mxGeometry>
        </mxCell>
      </root>
    </mxGraphModel>
  </diagram>
</mxfile>
